<svg xmlns="http://www.w3.org/2000/svg" width="1200" height="900" viewBox="0 0 1200 900" role="img" aria-labelledby="title desc">
  <title id="title">Ocean pause</title>
  <desc id="desc">Temporary professional preview for Bohdan Tiutenko ocean and surf photo.</desc>
  <defs>
    <linearGradient id="sky" x1="0" x2="0" y1="0" y2="1"><stop offset="0" stop-color="#93c5fd"/><stop offset="0.55" stop-color="#dbeafe"/><stop offset="1" stop-color="#f7d9ad"/></linearGradient>
    <linearGradient id="sea" x1="0" x2="1"><stop offset="0" stop-color="#0e7490"/><stop offset="1" stop-color="#38bdf8"/></linearGradient>
  </defs>
  <rect width="1200" height="900" fill="url(#sky)"/>
  <path d="M0 390c120 30 220-22 350 8 128 30 210 5 330-12 188-27 332 28 520 0v220H0z" fill="url(#sea)" opacity="0.78"/>
  <path d="M0 555c190-35 310 30 500 0 210-34 420 33 700-10v355H0z" fill="#d6a76d" opacity="0.85"/>
  <path d="M680 420c95-55 188-62 292-28 30 10 56 25 78 45l-370 0z" fill="#8b6f57" opacity="0.75"/>
  <g transform="translate(410 330)">
    <ellipse cx="155" cy="330" rx="170" ry="34" fill="#334155" opacity="0.22"/>
    <path d="M70 320c105-24 190-18 278 10" stroke="#f8fafc" stroke-width="38" stroke-linecap="round"/>
    <path d="M120 315c82-12 145-7 205 10" stroke="#0f172a" stroke-width="8" opacity="0.5"/>
    <circle cx="210" cy="90" r="54" fill="#111827"/>
    <path d="M190 140c54 8 94 45 115 100l-72 20-78-80z" fill="#0f172a"/>
    <path d="M170 220c80-8 150 20 185 93" fill="none" stroke="#0f172a" stroke-width="44" stroke-linecap="round"/>
    <path d="M145 245c-30 42-63 72-100 92" stroke="#0f172a" stroke-width="34" stroke-linecap="round"/>
  </g>
  <text x="600" y="790" text-anchor="middle" font-family="Inter, Arial, sans-serif" font-size="44" font-weight="700" fill="#ffffff">Ocean pause</text>
  <text x="600" y="836" text-anchor="middle" font-family="Inter, Arial, sans-serif" font-size="26" fill="#ffffff">Recovery, balance and focused calm</text>
</svg>
