<svg xmlns="http://www.w3.org/2000/svg" width="1200" height="900" viewBox="0 0 1200 900" role="img" aria-labelledby="title desc">
  <title id="title">Desert motorcycle ride</title>
  <desc id="desc">Temporary professional preview for Bohdan Tiutenko desert motorcycle photo.</desc>
  <defs>
    <linearGradient id="sand" x1="0" x2="0" y1="0" y2="1">
      <stop offset="0" stop-color="#e8f1f8"/>
      <stop offset="0.42" stop-color="#f0d3a3"/>
      <stop offset="1" stop-color="#c9965f"/>
    </linearGradient>
    <linearGradient id="bike" x1="0" x2="1">
      <stop offset="0" stop-color="#111827"/>
      <stop offset="1" stop-color="#334155"/>
    </linearGradient>
  </defs>
  <rect width="1200" height="900" fill="url(#sand)"/>
  <path d="M0 390c190-70 350-48 505 0 205 64 401 66 695-40v550H0z" fill="#d6a76d" opacity="0.58"/>
  <path d="M0 500c250-80 474-45 650 15 190 65 360 62 550-20v405H0z" fill="#b9814f" opacity="0.32"/>
  <g transform="translate(250 250)">
    <circle cx="230" cy="475" r="92" fill="none" stroke="#111827" stroke-width="34"/>
    <circle cx="650" cy="475" r="92" fill="none" stroke="#111827" stroke-width="34"/>
    <path d="M235 470l130-150h190l95 150M365 320l-55 150h330l-85-150" fill="none" stroke="url(#bike)" stroke-width="34" stroke-linecap="round" stroke-linejoin="round"/>
    <path d="M535 320l85-80 135 8" fill="none" stroke="#111827" stroke-width="24" stroke-linecap="round"/>
    <path d="M305 310h210l35 80H270z" fill="#f8fafc" stroke="#111827" stroke-width="18"/>
    <path d="M430 95c64 0 116 52 116 116s-52 116-116 116-116-52-116-116S366 95 430 95z" fill="#0f172a"/>
    <path d="M360 325c30-35 60-55 98-55 42 0 78 20 112 61l-32 83H387z" fill="#1e293b"/>
    <path d="M544 200c50 9 88 36 116 82" fill="none" stroke="#0f172a" stroke-width="32" stroke-linecap="round"/>
    <path d="M360 420l-118 15M655 418l118 18" stroke="#111827" stroke-width="18" stroke-linecap="round"/>
  </g>
  <text x="600" y="785" text-anchor="middle" font-family="Inter, Arial, sans-serif" font-size="42" font-weight="700" fill="#fff">Desert motorcycle ride</text>
  <text x="600" y="832" text-anchor="middle" font-family="Inter, Arial, sans-serif" font-size="26" fill="#fff">Endurance, control and calmness under pressure</text>
</svg>
