<svg xmlns="http://www.w3.org/2000/svg" width="1200" height="900" viewBox="0 0 1200 900" role="img" aria-labelledby="title desc">
  <title id="title">On the water with a dog</title>
  <desc id="desc">Temporary professional preview for Bohdan Tiutenko boat photo with a dog.</desc>
  <defs>
    <linearGradient id="water" x1="0" x2="1" y1="0" y2="1"><stop offset="0" stop-color="#dbeafe"/><stop offset="0.48" stop-color="#64748b"/><stop offset="1" stop-color="#0f172a"/></linearGradient>
    <linearGradient id="vest" x1="0" x2="1"><stop offset="0" stop-color="#fb923c"/><stop offset="1" stop-color="#f97316"/></linearGradient>
  </defs>
  <rect width="1200" height="900" fill="#dbeafe"/>
  <path d="M0 230c210 25 315-30 520 0 210 31 400-25 680 8v420H0z" fill="url(#water)" opacity="0.82"/>
  <path d="M0 285c190 20 320-25 520 8 215 36 415-25 680 0" fill="none" stroke="#f8fafc" stroke-width="8" opacity="0.45"/>
  <path d="M120 570l850-60 110 170-780 95z" fill="#f8fafc" stroke="#1e3a8a" stroke-width="28" stroke-linejoin="round"/>
  <path d="M245 585l660-45 56 84-620 74z" fill="#1d4ed8" opacity="0.86"/>
  <g transform="translate(320 230)">
    <circle cx="190" cy="105" r="62" fill="#f1d2b6" stroke="#111827" stroke-width="8"/>
    <path d="M118 112c18-58 80-94 154-54l-12-44c-72-22-148 11-170 78z" fill="#334155"/>
    <path d="M116 174c64-16 135-14 202 12l-14 250H128z" fill="#111827"/>
    <path d="M142 182h132l36 220H98z" fill="url(#vest)" stroke="#111827" stroke-width="10"/>
    <path d="M118 286c-54 44-88 96-102 155M314 288c62 44 100 92 118 150" fill="none" stroke="#111827" stroke-width="28" stroke-linecap="round"/>
  </g>
  <g transform="translate(620 455)">
    <ellipse cx="115" cy="172" rx="130" ry="58" fill="#8b6f57"/>
    <circle cx="82" cy="82" r="72" fill="#9b7b62"/>
    <path d="M28 84c-44-30-63-3-55 50 48 4 72-19 55-50zM135 80c55-20 76 15 46 58-45-2-65-26-46-58z" fill="#7c5f4b"/>
    <circle cx="70" cy="70" r="8" fill="#111827"/><circle cx="112" cy="70" r="8" fill="#111827"/>
    <path d="M78 104c22 22 50 22 74 0" fill="none" stroke="#111827" stroke-width="8" stroke-linecap="round"/>
  </g>
  <text x="600" y="795" text-anchor="middle" font-family="Inter, Arial, sans-serif" font-size="44" font-weight="700" fill="#ffffff">On the water with a dog</text>
  <text x="600" y="840" text-anchor="middle" font-family="Inter, Arial, sans-serif" font-size="26" fill="#ffffff">Care, trust and calm outside work</text>
</svg>
