<svg xmlns="http://www.w3.org/2000/svg" width="1200" height="900" viewBox="0 0 1200 900" role="img" aria-labelledby="title desc">
  <title id="title">Portrait in an art space</title>
  <desc id="desc">Temporary professional preview for Bohdan Tiutenko art space portrait.</desc>
  <rect width="1200" height="900" fill="#f8fafc"/>
  <rect x="90" y="80" width="560" height="740" fill="#e7e5e4"/>
  <rect x="650" y="80" width="460" height="740" fill="#ffffff"/>
  <path d="M135 145c80 95 80 225 10 338M220 220c85-30 150-20 230 30M190 390h300M250 520c75-40 155-25 230 18M170 680c108-72 218-65 330-4" fill="none" stroke="#111827" stroke-width="18" stroke-linecap="round" opacity="0.78"/>
  <text x="320" y="330" font-family="Inter, Arial, sans-serif" font-size="56" font-weight="800" fill="#111827" opacity="0.72">ART</text>
  <g transform="translate(700 210)">
    <circle cx="190" cy="95" r="58" fill="#d6d3d1" stroke="#111827" stroke-width="8"/>
    <rect x="145" y="150" width="112" height="320" rx="48" fill="#111827"/>
    <path d="M130 210h142l45 210H85z" fill="#1f2937"/>
    <path d="M125 188h-58M258 188h62" stroke="#111827" stroke-width="14" stroke-linecap="round"/>
    <path d="M155 86h70" stroke="#111827" stroke-width="10" stroke-linecap="round" opacity="0.7"/>
  </g>
  <text x="600" y="805" text-anchor="middle" font-family="Inter, Arial, sans-serif" font-size="44" font-weight="700" fill="#111827">Portrait in an art space</text>
  <text x="600" y="850" text-anchor="middle" font-family="Inter, Arial, sans-serif" font-size="26" fill="#475569">Culture, attention and character</text>
</svg>
