<svg xmlns="http://www.w3.org/2000/svg" viewBox="0 0 176 48" role="img" aria-label="Богдан Тютенко">
  <defs>
    <linearGradient id="mark" x1="4" y1="6" x2="42" y2="42" gradientUnits="userSpaceOnUse">
      <stop offset="0" stop-color="#7c3aed"/>
      <stop offset="1" stop-color="#06b6d4"/>
    </linearGradient>
    <filter id="shadow" x="-20%" y="-20%" width="140%" height="140%">
      <feDropShadow dx="0" dy="8" stdDeviation="7" flood-color="#000" flood-opacity=".24"/>
    </filter>
  </defs>
  <g filter="url(#shadow)">
    <rect x="4" y="6" width="36" height="36" rx="12" fill="url(#mark)"/>
    <path d="M16 15h8.2c4.4 0 7.1 2.1 7.1 5.4 0 1.8-.9 3.3-2.5 4.1 2.1.8 3.3 2.6 3.3 5 0 3.8-3 6.2-7.8 6.2H16V15Zm7.8 8.4c1.9 0 3-.8 3-2.3 0-1.4-1.1-2.2-3-2.2h-3.4v4.5h3.4Zm.5 8.5c2.1 0 3.4-.9 3.4-2.6 0-1.7-1.3-2.6-3.4-2.6h-3.9v5.2h3.9Z" fill="#fff"/>
  </g>
  <text x="52" y="21" font-family="Inter, system-ui, -apple-system, Segoe UI, sans-serif" font-size="15" font-weight="800" fill="#f8fbff">Богдан Тютенко</text>
  <text x="52" y="35" font-family="Inter, system-ui, -apple-system, Segoe UI, sans-serif" font-size="10" font-weight="700" letter-spacing="1.2" fill="#67e8f9">OPERATIONS LEADER</text>
</svg>
